<?xml version="1.0" standalone="no"?>
<!DOCTYPE svg PUBLIC "-//W3C//DTD SVG 20010904//EN"
 "http://www.w3.org/TR/2001/REC-SVG-20010904/DTD/svg10.dtd">
<svg version="1.0" xmlns="http://www.w3.org/2000/svg"
 width="1024.000000pt" height="577.000000pt" viewBox="0 0 1024.000000 577.000000"
 preserveAspectRatio="xMidYMid meet">
<metadata>
Created by potrace 1.15, written by Peter Selinger 2001-2017
</metadata>
<g transform="translate(0.000000,577.000000) scale(0.100000,-0.100000)"
fill="#000000" stroke="white">
<path d="M0 2885 l0 -2885 430 0 430 0 -15 36 c-25 60 -46 153 -47 204 0 57
18 101 101 238 52 88 141 263 141 279 0 3 14 23 32 45 28 36 83 76 240 174 26
16 98 61 160 100 140 89 189 116 195 110 3 -3 -23 -33 -57 -68 -34 -35 -85
-87 -113 -116 -42 -43 -111 -92 -137 -97 -36 -8 -131 -43 -152 -57 -14 -10
-30 -18 -35 -18 -12 -1 -66 -52 -92 -89 -13 -18 -56 -96 -96 -174 -70 -140
-102 -194 -146 -250 -31 -40 -28 -88 12 -212 l34 -105 870 2 870 3 6 30 c5 21
7 24 9 10 1 -11 2 -26 1 -32 -1 -7 9 -13 22 -13 20 0 24 4 21 27 -4 39 7 84
22 90 16 6 49 -27 56 -55 6 -23 -6 -30 -18 -11 -5 8 -10 6 -16 -5 -5 -9 -16
-16 -24 -16 -9 0 -14 -6 -12 -12 7 -20 90 -23 100 -4 11 19 29 21 25 4 -3 -19
1033 -24 1046 -6 7 10 10 10 14 1 4 -10 217 -13 1019 -13 679 0 1013 3 1009
10 -3 6 1 13 9 16 12 5 13 10 5 26 -7 13 -8 39 -4 67 4 25 8 64 9 86 1 27 6
41 17 43 11 2 14 12 12 35 -8 79 -5 99 17 119 20 19 23 19 31 5 8 -14 13 -13
45 8 30 20 39 22 56 12 16 -9 22 -9 25 1 6 17 23 15 23 -3 0 -20 10 -19 26 2
11 16 13 16 25 -10 7 -15 18 -27 26 -27 7 0 13 -7 13 -15 0 -8 12 -21 28 -30
l27 -16 -27 6 c-33 6 -56 -22 -32 -40 8 -5 17 -34 21 -62 3 -29 11 -53 17 -53
6 0 4 -5 -4 -10 -13 -9 -13 -11 0 -20 11 -7 12 -12 3 -21 -6 -6 -9 -18 -6 -25
3 -8 0 -14 -7 -14 -10 0 -10 -3 0 -15 10 -12 10 -19 2 -27 -7 -7 -8 -17 -1
-29 9 -18 80 -19 1994 -19 l1985 0 0 2885 0 2885 -1004 0 -1003 0 5 -25 c2
-14 0 -25 -7 -25 -6 0 -13 11 -17 25 l-6 25 -1244 0 c-978 0 -1249 -3 -1265
-12 -17 -10 -23 -10 -26 0 -7 19 -266 17 -283 -3 -7 -8 -21 -15 -31 -15 -23 0
-42 -33 -28 -47 8 -8 7 -13 0 -17 -17 -11 -13 -24 8 -31 37 -11 37 -59 -1 -68
-11 -3 -17 -10 -14 -16 4 -6 -9 -17 -29 -25 -35 -15 -52 -44 -17 -32 24 10
-26 -35 -60 -53 -31 -16 -32 -19 -18 -57 8 -20 8 -29 -2 -35 -17 -10 -28 -2
-28 22 0 10 -4 19 -10 19 -5 0 -10 -7 -10 -15 0 -20 -10 -19 -27 3 -14 16 -14
16 -9 0 3 -10 1 -18 -5 -18 -6 0 -13 9 -16 21 -4 15 -8 17 -14 8 -5 -9 -16 -4
-39 19 -39 39 -52 40 -48 5 3 -24 7 -28 31 -25 15 2 27 -1 27 -7 0 -6 5 -11
11 -11 14 0 38 -30 39 -47 0 -18 -39 -16 -47 2 -3 9 -18 22 -34 30 -35 19 -49
19 -25 2 17 -12 17 -14 2 -20 -11 -4 -20 3 -31 23 -15 29 -36 37 -69 24 -9 -3
-16 -14 -16 -24 0 -10 -9 -22 -20 -25 -11 -3 -20 -11 -20 -16 0 -5 -9 -9 -20
-9 -13 0 -18 5 -14 15 4 8 12 15 18 15 7 0 23 11 36 25 20 22 22 28 11 51 -15
34 -3 46 16 17 10 -15 26 -23 44 -23 32 0 41 25 12 33 -11 3 -5 5 12 6 22 1
26 4 17 13 -7 7 -12 20 -12 30 0 10 -4 18 -9 18 -5 0 -7 9 -4 20 4 15 9 18 18
10 7 -6 19 -9 26 -8 7 2 13 -4 14 -12 0 -9 8 -14 20 -12 30 6 30 7 -1 53 -33
48 -60 65 -49 30 5 -17 2 -21 -14 -21 -25 0 -54 -53 -38 -69 8 -8 3 -11 -16
-11 -16 0 -27 5 -27 14 0 19 -33 26 -53 11 -21 -15 -22 -25 -2 -25 8 0 15 7
15 16 0 8 4 12 10 9 15 -9 12 -51 -5 -65 -12 -10 -20 -9 -39 3 -16 11 -27 12
-34 5 -16 -16 -24 8 -10 32 11 17 10 22 -10 36 -28 19 -20 34 18 34 15 0 30 6
33 13 3 9 -9 11 -48 9 -40 -3 -54 0 -58 12 -5 11 3 17 28 22 19 3 39 12 46 20
9 11 6 14 -20 14 -29 0 -36 7 -32 38 1 6 -5 12 -13 12 -22 0 -28 17 -16 40 10
18 8 20 -22 19 -18 -1 -25 -3 -15 -6 20 -5 13 -23 -9 -23 -8 0 -14 7 -14 15 0
13 -161 15 -1390 15 l-1390 0 -1 -22 0 -23 -9 23 -9 22 -916 0 -915 0 0 -2885z
m5471 2803 c17 -16 16 -17 -9 -20 l-27 -4 25 -13 c14 -7 33 -23 43 -37 18 -24
18 -24 -7 -24 -23 0 -25 -3 -19 -30 4 -21 2 -30 -7 -30 -10 0 -9 -4 1 -16 11
-13 10 -17 -4 -25 -22 -13 -22 -26 1 -32 9 -3 0 -3 -20 -2 -20 2 -46 -4 -58
-12 -20 -14 -22 -13 -27 6 -4 15 -13 21 -34 21 -36 0 -38 17 -4 26 14 3 25 10
25 15 0 5 11 3 25 -3 14 -6 25 -15 25 -20 0 -4 7 -8 15 -8 27 0 16 18 -25 41
-46 26 -53 43 -14 33 23 -6 25 -4 19 15 -4 12 -2 21 4 21 6 0 11 7 11 15 0 9
9 15 23 15 21 1 21 1 4 14 -13 10 -16 21 -12 39 4 14 2 28 -4 31 -6 4 -11 11
-11 17 0 11 35 -8 61 -33z m1184 -958 c0 -25 -3 -50 -8 -57 -5 -6 -7 -20 -5
-30 4 -28 -22 -57 -74 -81 -64 -30 -127 -44 -174 -40 -41 4 -40 5 39 33 76 27
114 71 161 188 13 31 20 38 38 35 20 -3 23 -9 23 -48z m-2975 21 c0 -22 45
-107 74 -139 12 -13 42 -35 68 -48 71 -36 65 -43 -17 -24 -75 17 -181 76 -221
122 -20 23 -21 23 31 2 10 -4 15 0 15 10 0 9 5 16 11 16 6 0 9 7 5 15 -6 17
13 65 26 65 4 0 8 -8 8 -19z m2388 -75 c18 -49 76 -103 132 -123 51 -18 69
-37 28 -29 -32 7 -144 24 -200 31 -50 7 -58 14 -33 35 8 7 15 20 15 30 0 10
-7 20 -15 24 -21 8 -19 23 9 51 30 30 48 25 64 -19z m-1784 -1 c29 -27 34 -59
11 -82 -14 -14 -14 -17 2 -28 17 -12 16 -14 -7 -18 -14 -3 -50 -10 -80 -17
-64 -13 -248 -26 -239 -16 4 4 35 14 70 23 89 21 125 46 161 109 16 30 36 54
42 54 7 0 25 -11 40 -25z m996 -245 c0 -5 -6 -10 -13 -10 -15 0 -48 -36 -39
-44 3 -4 6 -37 7 -74 1 -43 7 -77 18 -92 23 -36 45 -138 41 -190 -2 -29 2 -56
13 -77 15 -27 15 -38 5 -66 -7 -18 -12 -64 -12 -101 0 -42 -6 -79 -16 -99 -12
-21 -13 -32 -5 -35 7 -2 8 -9 2 -21 -5 -9 -8 -43 -6 -74 3 -53 -5 -71 -20 -47
-4 6 -14 9 -23 8 -13 -2 -16 4 -14 27 2 21 0 26 -6 16 -8 -10 -11 -10 -17 -1
-5 8 1 20 16 31 13 10 20 21 16 25 -4 4 -13 2 -19 -4 -23 -23 -31 -12 -24 36
4 26 9 65 11 86 3 22 8 48 11 59 5 15 3 19 -9 14 -10 -4 -17 2 -20 14 -3 11 0
22 6 25 16 6 20 79 6 105 -8 16 -8 23 1 29 9 5 8 9 -2 13 -20 7 -23 90 -4 106
10 8 16 9 21 1 3 -5 12 -10 18 -10 7 0 3 8 -8 16 -11 9 -15 18 -9 20 6 3 9 18
6 34 -2 17 -9 27 -15 23 -6 -4 -7 -1 -2 7 13 21 15 88 4 117 -8 22 -7 30 6 39
13 10 14 16 4 32 -10 17 -9 23 12 45 24 26 59 36 59 17z m-1944 -522 c4 -5 1
-15 -5 -21 -17 -17 -13 -24 14 -31 18 -5 23 -11 18 -24 -4 -9 -11 -20 -16 -23
-5 -4 0 -27 12 -54 23 -52 27 -81 10 -87 -7 -2 -7 -12 0 -31 17 -44 14 -97 -5
-97 -8 0 -12 -4 -9 -10 3 -5 1 -10 -4 -10 -6 0 -11 -15 -11 -34 0 -22 -6 -36
-17 -40 -12 -5 -14 -9 -5 -18 16 -16 15 -28 -2 -28 -8 0 -16 -7 -20 -15 -3 -8
-1 -15 4 -15 15 0 12 -33 -6 -68 -14 -30 -54 -46 -54 -22 0 6 9 10 21 10 11 0
17 5 14 10 -3 6 -1 10 4 10 6 0 11 6 11 13 0 15 -66 11 -76 -4 -10 -17 -22 -9
-35 23 -10 24 -10 33 -1 36 7 2 12 17 12 33 0 16 5 29 11 29 5 0 8 4 5 9 -3 4
1 17 9 27 12 17 13 14 8 -25 -4 -29 -2 -42 4 -38 17 11 23 78 9 98 -12 18 -13
18 -24 -7 -19 -39 -29 -20 -22 38 4 29 4 58 -1 63 -4 6 -10 24 -13 39 -3 16
-10 34 -16 40 -15 15 -12 46 5 52 8 4 15 19 15 34 0 16 5 32 11 36 6 3 9 15 6
25 -3 12 2 20 14 24 10 3 21 15 24 26 12 37 83 56 101 27z m-2046 -59 c0 -5
-7 -9 -15 -9 -8 0 -15 -4 -15 -10 0 -13 34 -30 59 -30 26 0 27 -9 4 -26 -17
-11 -16 -13 9 -19 20 -5 28 -15 33 -42 3 -19 2 -40 -3 -46 -15 -19 -20 -86 -6
-91 6 -2 26 4 43 15 30 18 57 27 36 11 -5 -4 -15 -16 -21 -28 -10 -17 -9 -23
8 -33 15 -9 17 -16 9 -24 -6 -6 -11 -24 -11 -39 0 -18 -5 -28 -15 -28 -8 0
-15 -6 -15 -14 0 -7 -9 -16 -20 -19 -22 -6 -29 -52 -9 -59 6 -2 11 -21 12 -43
2 -31 -2 -40 -16 -43 -10 -2 -17 3 -17 12 0 9 -7 16 -15 16 -9 0 -18 7 -21 15
-4 8 -10 12 -16 9 -5 -3 -7 -12 -4 -20 3 -8 -1 -14 -9 -14 -10 0 -15 11 -15
35 0 19 5 35 10 35 6 0 10 5 10 11 0 5 -4 8 -9 5 -20 -13 -41 6 -35 30 7 26
-4 31 -25 12 -10 -11 -12 -9 -9 7 2 11 10 19 16 17 15 -3 15 -3 -7 41 -11 21
-22 33 -26 27 -10 -17 -27 -11 -21 8 3 9 -1 30 -9 46 -8 15 -15 36 -15 46 0
10 -6 20 -12 23 -10 3 -10 7 0 20 8 9 11 21 7 27 -3 6 3 10 14 10 19 0 20 2 9
20 -11 17 -10 22 2 30 8 5 14 21 15 37 0 22 5 28 23 27 17 0 21 4 16 18 -3 12
1 20 13 24 10 3 25 9 33 14 17 8 30 4 30 -11z m5077 -163 c-9 -22 5 -28 23
-11 13 12 23 13 43 6 21 -8 28 -7 36 7 9 14 10 15 11 1 0 -8 -10 -26 -22 -39
-13 -14 -22 -28 -20 -32 1 -5 -5 -8 -13 -8 -8 0 -14 8 -12 18 3 25 -17 27 -21
1 -2 -13 7 -32 24 -50 26 -28 27 -30 9 -42 -12 -10 -14 -16 -7 -21 7 -4 12
-16 12 -26 0 -10 6 -20 13 -23 10 -4 10 -7 0 -18 -7 -7 -13 -22 -13 -34 -1
-15 -4 -13 -14 11 -14 31 -53 51 -69 35 -11 -11 28 -25 43 -16 5 3 10 2 10 -4
0 -5 -5 -11 -12 -13 -15 -5 -20 -39 -7 -54 6 -7 2 -17 -11 -29 -19 -18 -20
-17 -20 6 0 19 -2 21 -10 9 -8 -12 -13 -13 -29 -3 -12 8 -41 11 -72 8 -49 -4
-51 -3 -45 20 3 13 1 27 -5 30 -6 4 -13 -2 -16 -14 -6 -24 -23 -29 -23 -7 0
21 28 46 51 46 10 0 18 6 17 12 -2 7 7 14 19 16 39 6 50 134 14 163 -11 9 -17
19 -14 23 3 3 12 1 20 -6 11 -9 17 -6 29 10 8 12 24 22 34 22 10 0 22 5 25 10
9 15 28 12 22 -4z m-937 -452 c0 -2 14 -26 30 -52 17 -27 30 -57 30 -67 0 -22
-28 -55 -45 -55 -7 0 -15 -8 -17 -17 -3 -10 -18 -25 -34 -33 -16 -8 -48 -27
-71 -42 -23 -15 -44 -28 -47 -28 -3 0 -6 14 -6 30 0 17 5 30 11 30 6 0 8 7 5
15 -3 9 1 18 9 21 10 4 13 14 8 32 -4 17 -2 23 5 18 6 -4 20 1 31 10 16 14 17
20 8 35 -14 22 -32 25 -24 4 4 -8 2 -17 -3 -20 -10 -6 -12 -1 -15 50 -1 17 -5
38 -9 48 -5 10 -4 17 2 17 6 0 22 10 36 23 19 18 23 30 19 47 -5 20 1 17 35
-19 23 -25 42 -46 42 -47z m52 -785 c-2 -19 -3 -53 -3 -76 1 -23 -4 -45 -11
-50 -20 -13 -81 -33 -100 -33 -10 0 -18 -4 -18 -10 0 -5 -12 -9 -27 -9 -25 2
-25 2 -5 6 17 3 21 9 17 24 -5 14 -2 19 14 19 14 0 23 11 32 38 6 20 20 48 30
61 11 13 19 28 19 34 0 13 32 37 45 33 6 -1 9 -18 7 -37z m-3508 -1257 c3 -5
-11 -24 -30 -43 -19 -18 -48 -57 -64 -86 -17 -29 -34 -53 -38 -53 -14 0 -48
29 -34 30 19 0 14 24 -8 37 -21 14 -54 7 -44 -9 4 -6 -2 -7 -17 -3 -20 6 -22
5 -11 -6 21 -23 13 -30 -25 -24 -63 11 -73 16 -73 33 1 22 38 66 70 83 59 30
262 61 274 41z m169 -153 c-2 -10 8 -16 29 -17 18 -2 33 -4 34 -5 0 -1 4 -23
7 -50 6 -40 3 -50 -13 -64 -20 -18 -28 -39 -10 -28 13 8 13 -11 -1 -36 -6 -13
-18 -19 -32 -17 -14 2 -21 -2 -19 -10 3 -17 -47 -34 -83 -28 -17 3 -42 0 -57
-8 -16 -8 -28 -11 -28 -5 0 14 -27 11 -43 -5 -11 -11 -17 -12 -26 -3 -9 9 -10
4 -5 -21 7 -35 -2 -41 -22 -14 -16 20 -18 58 -4 67 5 3 7 12 3 20 -3 8 0 15 7
15 10 0 10 3 0 15 -15 18 -7 31 26 39 33 9 59 34 69 66 4 14 13 32 20 40 7 8
15 24 17 35 3 16 12 20 51 21 26 1 51 4 54 8 11 11 28 0 26 -15z m817 -171 c0
-57 -34 -157 -64 -188 -16 -18 -26 -37 -22 -45 3 -8 1 -15 -4 -15 -6 0 -10
-11 -10 -24 0 -21 5 -25 30 -24 16 1 27 5 24 10 -3 4 2 11 10 14 9 3 16 13 16
20 0 12 4 12 20 4 16 -9 18 -15 10 -30 -13 -24 -7 -26 15 -4 14 15 17 14 36
-10 11 -14 26 -26 32 -26 7 0 23 -23 36 -50 24 -48 24 -50 6 -63 -24 -18 -12
-36 21 -29 16 3 30 -1 35 -9 8 -12 10 -12 18 0 5 7 14 10 20 7 6 -4 11 0 11 8
0 17 14 19 45 6 20 -8 8 -14 -21 -11 -7 1 -14 -5 -18 -14 -3 -9 0 -15 8 -15 7
0 18 -11 24 -25 7 -15 8 -25 2 -25 -6 0 -10 5 -10 10 0 6 -5 10 -11 10 -6 0
-9 -7 -5 -15 4 -10 -1 -15 -14 -15 -11 0 -20 5 -20 10 0 17 -25 11 -48 -10
l-22 -20 6 28 c5 26 3 30 -20 34 -14 3 -26 1 -26 -3 0 -15 -27 -10 -40 6 -7 9
-15 13 -18 10 -3 -3 -11 0 -19 6 -14 13 -16 9 -13 -39 1 -18 -4 -39 -10 -47
-16 -20 -4 -65 23 -88 18 -15 19 -18 4 -13 -10 3 -37 6 -60 6 -35 1 -39 3 -26
13 12 9 19 58 10 75 -4 7 2 17 10 14 5 -1 9 7 9 18 0 11 5 20 10 20 16 0 -12
39 -32 46 -28 8 -21 24 10 24 l27 1 -27 17 c-16 9 -28 26 -28 38 0 13 -10 25
-25 32 -38 18 -45 15 -45 -16 0 -37 10 -46 26 -24 12 16 13 16 14 0 0 -9 -4
-20 -10 -23 -5 -3 -10 -15 -10 -26 0 -11 -7 -27 -15 -35 -8 -9 -15 -24 -15
-35 0 -14 -7 -19 -25 -19 -19 0 -23 4 -18 18 3 9 10 22 15 28 5 7 3 16 -6 23
-17 14 -41 -11 -32 -34 4 -12 0 -14 -18 -9 -21 5 -24 1 -29 -36 -6 -48 -11
-55 -32 -47 -18 8 -21 67 -2 67 17 0 38 36 31 55 -4 10 0 15 15 15 12 0 21 5
21 10 0 6 -8 10 -17 10 -13 0 -14 3 -5 12 19 19 14 25 -17 20 -16 -2 -31 0
-35 6 -3 5 12 12 34 16 37 6 57 26 28 26 -7 0 -5 5 5 11 21 12 22 45 2 53 -8
3 -15 11 -15 19 0 7 -18 17 -42 23 -55 12 -64 34 -11 27 54 -7 117 12 159 49
36 31 104 155 104 188 0 9 3 20 7 23 14 15 23 5 23 -25z"/>
</g>
</svg>
