<svg height="512pt" viewBox="0 -9 512.00012 512" width="512pt" xmlns="http://www.w3.org/2000/svg"><path d="m204.800781 179.207031v110.933594h34.132813v-110.933594c0-9.425781 7.640625-17.066406 17.066406-17.066406h34.132812v-34.136719h-34.132812c-9.425781 0-17.066406-7.640625-17.066406-17.066406v-42.664062h-34.132813v42.664062c0 9.425781-7.640625 17.066406-17.066406 17.066406h-34.132813v34.136719h34.132813c9.425781 0 17.066406 7.640625 17.066406 17.066406zm0 0"/><path d="m358.398438 187.738281c-14.136719 0-25.597657 11.460938-25.597657 25.601563 0 14.136718 11.460938 25.597656 25.597657 25.597656h42.839843c-11.605469-15.09375-11.605469-36.105469 0-51.199219zm0 0"/><path d="m366.933594 128.003906v42.667969h59.734375v-42.667969c.046875-34.140625-13.5625-66.882812-37.804688-90.929687-24.238281-24.042969-57.089843-37.390625-91.230469-37.07031275h-7.292968c12.550781 6.74999975 24.050781 15.29296875 34.132812 25.36328175 27.265625 27.1875 42.550782 64.132812 42.460938 102.636718zm0 0"/><path d="m494.933594 460.804688h8.53125c4.714844 0 8.535156-3.820313 8.535156-8.53125 0-4.714844-3.820312-8.535157-8.535156-8.535157h-76.796875v-187.734375h-59.734375v171.941406l18.933594-23.671874c2.945312-3.683594 8.320312-4.277344 12-1.332032 3.679687 2.945313 4.277343 8.316406 1.332031 11.996094l-23.042969 28.800781h-38.398438l-28.101562-28.097656c-3.234375-3.351563-3.1875-8.671875.105469-11.964844 3.292969-3.289062 8.613281-3.335937 11.960937-.101562l28.144532 28.097656v-176.519531c-19.886719-4.039063-34.175782-21.523438-34.175782-41.8125 0-20.292969 14.289063-37.777344 34.175782-41.8125v-43.523438c.050781-34.140625-13.5625-66.882812-37.800782-90.929687-24.238281-24.042969-57.089844-37.390625-91.230468-37.07031275-71.164063 1.73828175-127.726563 60.32031275-126.96875 131.49999975v40.023438c19.886718 4.035156 34.175781 21.519531 34.175781 41.8125 0 20.289062-14.289063 37.773437-34.175781 41.8125v172.800781l18.933593-23.671875c2.945313-3.679688 8.320313-4.277344 12-1.332031 3.679688 2.945312 4.277344 8.316406 1.332031 12l-23.042968 28.789062h-14.222656l-40.167969-40.164062c-3.347657-3.234375-8.671875-3.1875-11.960938.101562-3.292969 3.292969-3.339843 8.613281-.105469 11.964844l28.101563 28.097656h-56.199219c-3.234375 0-6.1875 1.828125-7.632812 4.71875-1.445313 2.890625-1.136719 6.351563.804687 8.933594l25.601563 34.136719c1.828125 2.4375 4.820312 3.714844 7.84375 3.351562 3.027344-.367187 5.628906-2.316406 6.828125-5.121094 1.199219-2.804687.808593-6.03125-1.019531-8.472656l-15.359376-20.480468h21.332032l23.039062 30.722656c1.828125 2.4375 4.820313 3.714844 7.847656 3.351562 3.027344-.367187 5.628907-2.316406 6.828126-5.121094 1.195312-2.804687.808593-6.03125-1.023438-8.472656l-15.359375-20.480468h21.335937l23.039063 30.722656c1.828125 2.4375 4.820313 3.714844 7.847656 3.351562 3.027344-.367187 5.628907-2.316406 6.824219-5.121094 1.199219-2.804687.808594-6.03125-1.019531-8.472656l-15.359375-20.480468h21.332031l23.042969 30.722656c2.824218 3.769531 8.175781 4.53125 11.945312 1.707031 3.769532-2.828125 4.535156-8.179687 1.707032-11.949219l-15.359376-20.480468h21.332032l23.039062 30.722656c2.828125 3.769531 8.175782 4.53125 11.949219 1.707031 3.769531-2.828125 4.53125-8.179687 1.703125-11.949219l-15.359375-20.480468h21.335937l23.039063 30.722656c2.828125 3.769531 8.175781 4.53125 11.945313 1.707031 3.769531-2.828125 4.535156-8.179687 1.707031-11.949219l-15.359375-20.480468h21.332031l23.042969 30.722656c1.828125 2.4375 4.820312 3.714844 7.84375 3.351562 3.027344-.367187 5.628906-2.316406 6.828125-5.121094 1.199219-2.804687.808593-6.03125-1.019531-8.472656l-15.359376-20.480468h21.332032l23.039062 30.722656c1.828125 2.4375 4.820313 3.714844 7.847656 3.351562 3.027344-.367187 5.628907-2.316406 6.828126-5.121094 1.195312-2.804687.808593-6.03125-1.023438-8.472656l-15.359375-20.480468h21.335937l23.039063 30.722656c2.828125 3.769531 8.175781 4.53125 11.945313 1.707031 3.769531-2.828125 4.535156-8.179687 1.707031-11.949219l-15.359375-20.480468h21.332031l23.042969 30.722656c1.828125 2.4375 4.820312 3.714844 7.84375 3.351562 3.027344-.367187 5.628906-2.316406 6.828125-5.121094 1.199219-2.804687.808593-6.03125-1.019531-8.472656l-15.359376-20.480468h21.332032l23.039062 30.722656c2.828125 3.769531 8.175782 4.53125 11.949219 1.707031 3.769531-2.828125 4.53125-8.179687 1.703125-11.949219l-15.359375-20.480468h21.335937l23.039063 30.722656c1.828125 2.4375 4.820313 3.714844 7.847656 3.351562 3.027344-.367187 5.628907-2.316406 6.824219-5.121094 1.199219-2.804687.808594-6.03125-1.019531-8.472656zm-358.398438-332.800782c0-9.421875 7.640625-17.066406 17.066406-17.066406h34.132813v-42.664062c0-9.425782 7.640625-17.066407 17.066406-17.066407h34.132813c9.425781 0 17.066406 7.640625 17.066406 17.066407v42.664062h34.132812c9.425782 0 17.066407 7.644531 17.066407 17.066406v34.136719c0 9.425781-7.640625 17.066406-17.066407 17.066406h-34.132812v110.933594c0 9.425781-7.640625 17.066406-17.066406 17.066406h-34.132813c-9.425781 0-17.066406-7.640625-17.066406-17.066406v-110.933594h-34.132813c-9.425781 0-17.066406-7.640625-17.066406-17.066406zm0 0"/></svg>